<svg width="48" height="48" viewBox="0 0 48 48" fill="none" xmlns="http://www.w3.org/2000/svg">
<path d="M41.9538 26.715C42.1334 26.961 42.2865 27.2253 42.4104 27.5035C42.5394 27.725 42.5929 27.9823 42.563 28.2368C42.533 28.4912 42.4212 28.7291 42.2444 28.9146C41.9123 29.1013 41.5178 29.2466 41.1857 29.4334L40.3762 29.8276C40.2418 29.8862 40.1224 29.9744 40.0268 30.0855C39.9312 30.1966 39.8619 30.3278 39.824 30.4693C39.7861 30.6109 39.7806 30.7591 39.8079 30.9031C39.8352 31.0471 39.8946 31.183 39.9817 31.3009C40.1063 31.4877 40.2516 31.6329 40.3762 31.8197C40.5075 31.9928 40.5786 32.2042 40.5786 32.4215C40.5786 32.6387 40.5075 32.8501 40.3762 33.0232C40.1893 33.5005 39.7949 33.4382 39.4628 33.5005C39.1307 33.5627 39.4628 33.6872 39.4628 33.8325C39.6349 33.8909 39.7878 33.9952 39.9049 34.1342C40.022 34.2732 40.0988 34.4415 40.1271 34.621C40.1467 34.7974 40.1207 34.9758 40.0517 35.1393C39.9826 35.3028 39.8728 35.4459 39.7326 35.5548C39.4478 35.7573 39.1773 35.9791 38.9231 36.2188C38.7028 36.4271 38.5481 36.6951 38.478 36.99C38.408 37.2849 38.4256 37.5938 38.5287 37.8789C38.7784 38.5505 38.833 39.2791 38.6861 39.9804C38.5392 40.6818 38.1967 41.3272 37.6983 41.8423C37.4048 42.1576 37.042 42.4005 36.6386 42.5517C36.2351 42.703 35.802 42.7585 35.3734 42.7138C34.4601 42.6515 33.5882 42.5063 32.6541 42.3818C31.6018 42.1681 30.5312 42.0569 29.4574 42.0498C28.7202 42.0339 27.9958 42.2439 27.3815 42.6515C26.9801 42.9254 26.6636 43.3065 26.4682 43.7513C26.2863 44.1864 26.1473 44.6381 26.053 45.1001C25.9955 45.5749 25.8024 46.023 25.4969 46.391C25.1914 46.759 24.7863 47.0312 24.3301 47.1752C21.4809 47.8364 18.5541 48.1017 15.6324 47.9637C12.6579 48.1094 9.67822 47.8157 6.78946 47.0922C6.60675 47.0448 6.43646 46.9585 6.2903 46.8391C6.14413 46.7196 6.02556 46.57 5.94273 46.4005C5.85989 46.2309 5.81476 46.0454 5.81042 45.8568C5.80609 45.6682 5.84266 45.4808 5.91762 45.3076V45.0379C6.95541 42.054 6.9991 38.8145 6.04217 35.8038C5.33771 33.5385 4.50607 31.3146 3.55119 29.1428C2.63783 26.881 1.64144 24.6399 0.894145 22.3159C0.276892 20.3563 -0.0244111 18.3109 0.00154467 16.2567C0.108501 13.5329 1.01049 10.9001 2.59631 8.68265C5.05246 5.33115 8.45846 2.79383 12.3734 1.39915C14.9811 0.400595 17.7608 -0.0719234 20.5521 0.00885569C23.1569 0.00936938 25.7317 0.564853 28.1048 1.63829C30.4779 2.71172 32.595 4.27845 34.3148 6.23407C35.8935 8.05657 36.9291 10.2852 37.3039 12.6668C37.6884 14.9075 37.7722 17.1894 37.553 19.4523C37.5003 20.5898 37.8867 21.7041 38.6325 22.5649C39.7534 23.9137 40.8743 25.304 41.9538 26.715Z" fill="url(#paint1_linear_374_3604)"/>
<defs>
<linearGradient id="paint1_linear_374_3604" x1="0" y1="24" x2="42.5711" y2="24" gradientUnits="userSpaceOnUse">
<stop stop-color="#FF9966"/>
<stop offset="1" stop-color="#FF8CA9"/>
</linearGradient>
</defs>
</svg> 